# xmcd CD database file
#
# Track frame offsets:
#	150
#	24681
#	50195
#	76439
#	99420
#	122726
#	144573
#	164547
#	188522
#	213612
#	236547
#	261790
#	289626
#	312059
#
# Disc length: 4423 seconds
#
# Revision: 2
# Processed by: cddbd v1.5.2PL0 Copyright (c) Steve Scherf et al.
# Submitted via: CDex 1.70beta2
#
DISCID=c711450e
DTITLE=TWO-MIX Single Collection - TWO-MIX Single Collection - MinaMiru-
DYEAR=2008
DGENRE=Salsa
TTITLE0=Justice-Future Mystery
TTITLE1=Kiss
TTITLE2=Rhythmic Youth
TTITLE3=Little Sky Walker
TTITLE4=Because I Love You
TTITLE5=37C
TTITLE6=Justice-MinaMiru
TTITLE7=Kiss-MinaMiru
TTITLE8=Rhythmic Youth
TTITLE9=Medley
TTITLE10=Kiss-Another Possibility
TTITLE11=Rhythmic Youth-Another Possibility
TTITLE12=37C-0.5C
TTITLE13=37C-1.5C
EXTD=YEAR: 2008
EXTT0=
EXTT1=
EXTT2=
EXTT3=
EXTT4=
EXTT5=
EXTT6=
EXTT7=
EXTT8=
EXTT9=
EXTT10=
EXTT11=
EXTT12=
EXTT13=
PLAYORDER=
